<mxfile host="app.diagrams.net" agent="Mozilla/5.0 (Macintosh; Intel Mac OS X 10_15_7) AppleWebKit/537.36 (KHTML, like Gecko) Chrome/131.0.0.0 Safari/537.36" version="26.0.6">
  <diagram name="Page-1" id="VA9R9m_-RihBjjqIwqLi">
    <mxGraphModel dx="3392" dy="2794" grid="1" gridSize="10" guides="1" tooltips="1" connect="1" arrows="1" fold="1" page="1" pageScale="1" pageWidth="827" pageHeight="1169" math="0" shadow="0">
      <root>
        <mxCell id="0" />
        <mxCell id="1" parent="0" />
        <mxCell id="-YPhlSswFtu4Mcz2xCKf-2" value="" style="edgeStyle=none;orthogonalLoop=1;jettySize=auto;html=1;rounded=0;entryX=-0.1;entryY=0.217;entryDx=0;entryDy=0;entryPerimeter=0;labelBackgroundColor=none;strokeColor=#E07A5F;fontColor=default;" parent="1" edge="1">
          <mxGeometry width="100" relative="1" as="geometry">
            <mxPoint x="-6" y="180.18" as="sourcePoint" />
            <mxPoint x="150" y="179.99999999999994" as="targetPoint" />
            <Array as="points" />
          </mxGeometry>
        </mxCell>
        <mxCell id="-YPhlSswFtu4Mcz2xCKf-3" value="" style="edgeStyle=none;orthogonalLoop=1;jettySize=auto;html=1;rounded=0;entryX=-0.1;entryY=0.217;entryDx=0;entryDy=0;entryPerimeter=0;labelBackgroundColor=none;strokeColor=#E07A5F;fontColor=default;" parent="1" edge="1">
          <mxGeometry width="100" relative="1" as="geometry">
            <mxPoint x="-6" y="189.5" as="sourcePoint" />
            <mxPoint x="150" y="189.5" as="targetPoint" />
            <Array as="points" />
          </mxGeometry>
        </mxCell>
        <mxCell id="-YPhlSswFtu4Mcz2xCKf-4" value="" style="edgeStyle=none;orthogonalLoop=1;jettySize=auto;html=1;rounded=0;entryX=-0.1;entryY=0.217;entryDx=0;entryDy=0;entryPerimeter=0;labelBackgroundColor=none;strokeColor=#E07A5F;fontColor=default;" parent="1" edge="1">
          <mxGeometry width="100" relative="1" as="geometry">
            <mxPoint x="-6" y="200" as="sourcePoint" />
            <mxPoint x="150" y="200" as="targetPoint" />
            <Array as="points">
              <mxPoint x="64" y="200" />
            </Array>
          </mxGeometry>
        </mxCell>
        <mxCell id="-YPhlSswFtu4Mcz2xCKf-7" value="" style="html=1;dashed=0;aspect=fixed;verticalLabelPosition=bottom;verticalAlign=top;align=center;shape=mxgraph.gmdl.gps;strokeColor=#E07A5F;fillColor=#F2CC8F;shadow=0;strokeWidth=2;sketch=0;labelBackgroundColor=none;fontColor=#393C56;" parent="1" vertex="1">
          <mxGeometry x="-50" y="180" width="20" height="20" as="geometry" />
        </mxCell>
        <mxCell id="-YPhlSswFtu4Mcz2xCKf-8" value="Bus continous location data&lt;div&gt;tracked by GPS device&lt;/div&gt;" style="whiteSpace=wrap;html=1;sketch=1;curveFitting=1;jiggle=2;labelBackgroundColor=none;fillColor=#F2CC8F;strokeColor=#E07A5F;fontColor=#393C56;" parent="1" vertex="1">
          <mxGeometry x="10" y="50" width="100" height="110" as="geometry" />
        </mxCell>
        <mxCell id="-YPhlSswFtu4Mcz2xCKf-56" style="edgeStyle=orthogonalEdgeStyle;rounded=0;orthogonalLoop=1;jettySize=auto;html=1;strokeColor=#E07A5F;fontColor=#393C56;fillColor=#F2CC8F;" parent="1" source="-YPhlSswFtu4Mcz2xCKf-9" edge="1">
          <mxGeometry relative="1" as="geometry">
            <mxPoint x="900" y="14.000000000000455" as="targetPoint" />
          </mxGeometry>
        </mxCell>
        <mxCell id="-YPhlSswFtu4Mcz2xCKf-9" value="" style="outlineConnect=0;dashed=0;verticalLabelPosition=bottom;verticalAlign=top;align=center;html=1;shape=mxgraph.aws3.queue;fillColor=#F2CC8F;labelBackgroundColor=none;strokeColor=#E07A5F;fontColor=#393C56;" parent="1" vertex="1">
          <mxGeometry x="295" y="-10" width="110" height="48" as="geometry" />
        </mxCell>
        <mxCell id="-YPhlSswFtu4Mcz2xCKf-10" value="Bus location events" style="whiteSpace=wrap;html=1;labelBackgroundColor=none;fillColor=#F2CC8F;strokeColor=#E07A5F;fontColor=#393C56;" parent="1" vertex="1">
          <mxGeometry x="290" y="-100" width="120" height="60" as="geometry" />
        </mxCell>
        <mxCell id="-YPhlSswFtu4Mcz2xCKf-11" value="Kenisis" style="text;html=1;align=center;verticalAlign=middle;resizable=0;points=[];autosize=1;strokeColor=none;fillColor=none;labelBackgroundColor=none;fontColor=#393C56;" parent="1" vertex="1">
          <mxGeometry x="320" y="38" width="60" height="30" as="geometry" />
        </mxCell>
        <mxCell id="-YPhlSswFtu4Mcz2xCKf-28" style="edgeStyle=orthogonalEdgeStyle;rounded=0;orthogonalLoop=1;jettySize=auto;html=1;labelBackgroundColor=none;strokeColor=#E07A5F;fontColor=default;" parent="1" source="-YPhlSswFtu4Mcz2xCKf-25" target="-YPhlSswFtu4Mcz2xCKf-26" edge="1">
          <mxGeometry relative="1" as="geometry" />
        </mxCell>
        <mxCell id="-YPhlSswFtu4Mcz2xCKf-48" style="edgeStyle=orthogonalEdgeStyle;rounded=0;orthogonalLoop=1;jettySize=auto;html=1;exitX=1;exitY=0.5;exitDx=0;exitDy=0;strokeColor=#E07A5F;fontColor=#393C56;fillColor=#F2CC8F;" parent="1" source="-YPhlSswFtu4Mcz2xCKf-51" target="-YPhlSswFtu4Mcz2xCKf-39" edge="1">
          <mxGeometry relative="1" as="geometry">
            <mxPoint x="1020" y="10" as="sourcePoint" />
          </mxGeometry>
        </mxCell>
        <mxCell id="-YPhlSswFtu4Mcz2xCKf-17" style="edgeStyle=orthogonalEdgeStyle;rounded=0;orthogonalLoop=1;jettySize=auto;html=1;exitX=1;exitY=0.25;exitDx=0;exitDy=0;entryX=0;entryY=0.5;entryDx=0;entryDy=0;entryPerimeter=0;labelBackgroundColor=none;strokeColor=#E07A5F;fontColor=default;" parent="1" target="-YPhlSswFtu4Mcz2xCKf-9" edge="1">
          <mxGeometry relative="1" as="geometry">
            <mxPoint x="200" y="195" as="sourcePoint" />
          </mxGeometry>
        </mxCell>
        <mxCell id="-YPhlSswFtu4Mcz2xCKf-18" value="" style="outlineConnect=0;dashed=0;verticalLabelPosition=bottom;verticalAlign=top;align=center;html=1;shape=mxgraph.aws3.api_gateway;fillColor=#F2CC8F;labelBackgroundColor=none;strokeColor=#E07A5F;fontColor=#393C56;" parent="1" vertex="1">
          <mxGeometry x="150" y="160" width="76.5" height="120" as="geometry" />
        </mxCell>
        <mxCell id="-YPhlSswFtu4Mcz2xCKf-29" style="edgeStyle=orthogonalEdgeStyle;rounded=0;orthogonalLoop=1;jettySize=auto;html=1;exitX=1;exitY=0.5;exitDx=0;exitDy=0;exitPerimeter=0;labelBackgroundColor=none;strokeColor=#E07A5F;fontColor=default;" parent="1" source="-YPhlSswFtu4Mcz2xCKf-20" edge="1">
          <mxGeometry relative="1" as="geometry">
            <mxPoint x="260" y="509" as="targetPoint" />
          </mxGeometry>
        </mxCell>
        <mxCell id="-YPhlSswFtu4Mcz2xCKf-20" value="" style="sketch=0;points=[[0,0,0],[0.25,0,0],[0.5,0,0],[0.75,0,0],[1,0,0],[0,1,0],[0.25,1,0],[0.5,1,0],[0.75,1,0],[1,1,0],[0,0.25,0],[0,0.5,0],[0,0.75,0],[1,0.25,0],[1,0.5,0],[1,0.75,0]];outlineConnect=0;fontColor=#393C56;fillColor=#F2CC8F;strokeColor=#E07A5F;dashed=0;verticalLabelPosition=bottom;verticalAlign=top;align=center;html=1;fontSize=12;fontStyle=0;aspect=fixed;shape=mxgraph.aws4.resourceIcon;resIcon=mxgraph.aws4.desktop_and_app_streaming;labelBackgroundColor=none;" parent="1" vertex="1">
          <mxGeometry x="-79" y="470" width="78" height="78" as="geometry" />
        </mxCell>
        <mxCell id="-YPhlSswFtu4Mcz2xCKf-26" value="" style="pointerEvents=1;shadow=0;dashed=0;html=1;strokeColor=none;fillColor=#F2CC8F;labelPosition=center;verticalLabelPosition=bottom;verticalAlign=top;align=center;outlineConnect=0;shape=mxgraph.veeam.cluster;labelBackgroundColor=none;fontColor=#393C56;" parent="1" vertex="1">
          <mxGeometry x="260" y="417" width="102.8" height="183" as="geometry" />
        </mxCell>
        <mxCell id="-YPhlSswFtu4Mcz2xCKf-27" value="Web socket&amp;nbsp;&lt;div&gt;connection&lt;div&gt;server&lt;/div&gt;&lt;/div&gt;" style="text;html=1;align=center;verticalAlign=middle;resizable=0;points=[];autosize=1;strokeColor=none;fillColor=none;labelBackgroundColor=none;fontColor=#393C56;" parent="1" vertex="1">
          <mxGeometry x="257.8" y="615" width="90" height="60" as="geometry" />
        </mxCell>
        <mxCell id="-YPhlSswFtu4Mcz2xCKf-33" value="connection DB" style="text;html=1;align=center;verticalAlign=middle;resizable=0;points=[];autosize=1;strokeColor=none;fillColor=none;labelBackgroundColor=none;fontColor=#393C56;" parent="1" vertex="1">
          <mxGeometry x="433.33" y="740" width="100" height="30" as="geometry" />
        </mxCell>
        <mxCell id="-YPhlSswFtu4Mcz2xCKf-36" value="store bus historical data&lt;div&gt;&amp;nbsp;based on old journey&lt;/div&gt;" style="text;html=1;align=center;verticalAlign=middle;resizable=0;points=[];autosize=1;strokeColor=none;fillColor=none;labelBackgroundColor=none;fontColor=#393C56;sketch=1;curveFitting=1;jiggle=2;" parent="1" vertex="1">
          <mxGeometry x="1270" y="140" width="150" height="40" as="geometry" />
        </mxCell>
        <mxCell id="-YPhlSswFtu4Mcz2xCKf-38" value="" style="verticalLabelPosition=bottom;html=1;verticalAlign=top;align=center;strokeColor=none;fillColor=#F2CC8F;shape=mxgraph.azure.notification_hub;pointerEvents=1;labelBackgroundColor=none;fontColor=#393C56;" parent="1" vertex="1">
          <mxGeometry x="1695" y="290" width="130" height="128" as="geometry" />
        </mxCell>
        <mxCell id="-YPhlSswFtu4Mcz2xCKf-39" value="" style="outlineConnect=0;dashed=0;verticalLabelPosition=bottom;verticalAlign=top;align=center;html=1;shape=mxgraph.aws3.queue;fillColor=#F2CC8F;labelBackgroundColor=none;strokeColor=#E07A5F;fontColor=#393C56;" parent="1" vertex="1">
          <mxGeometry x="1500" y="330" width="90" height="48" as="geometry" />
        </mxCell>
        <mxCell id="-YPhlSswFtu4Mcz2xCKf-42" value="Notification service, send push notification using Firecloud or Apple push notification, when devide is offline for proximity alerts" style="whiteSpace=wrap;html=1;rounded=0;glass=0;shadow=0;sketch=1;curveFitting=1;jiggle=2;labelBackgroundColor=none;fillColor=#F2CC8F;strokeColor=#E07A5F;fontColor=#393C56;" parent="1" vertex="1">
          <mxGeometry x="1700" y="440" width="120" height="110" as="geometry" />
        </mxCell>
        <mxCell id="-YPhlSswFtu4Mcz2xCKf-25" value="Web socket connection manager" style="whiteSpace=wrap;html=1;labelBackgroundColor=none;fillColor=#F2CC8F;strokeColor=#E07A5F;fontColor=#393C56;" parent="1" vertex="1">
          <mxGeometry x="450" y="466" width="60" height="82" as="geometry" />
        </mxCell>
        <mxCell id="-YPhlSswFtu4Mcz2xCKf-46" style="edgeStyle=orthogonalEdgeStyle;rounded=0;orthogonalLoop=1;jettySize=auto;html=1;entryX=0;entryY=0.5;entryDx=0;entryDy=0;entryPerimeter=0;strokeColor=#E07A5F;fontColor=#393C56;fillColor=#F2CC8F;" parent="1" source="-YPhlSswFtu4Mcz2xCKf-39" target="-YPhlSswFtu4Mcz2xCKf-38" edge="1">
          <mxGeometry relative="1" as="geometry" />
        </mxCell>
        <mxCell id="-YPhlSswFtu4Mcz2xCKf-72" style="edgeStyle=orthogonalEdgeStyle;rounded=0;orthogonalLoop=1;jettySize=auto;html=1;strokeColor=#E07A5F;fontColor=#393C56;fillColor=#F2CC8F;" parent="1" source="-YPhlSswFtu4Mcz2xCKf-49" edge="1">
          <mxGeometry relative="1" as="geometry">
            <mxPoint x="1190" y="14" as="targetPoint" />
          </mxGeometry>
        </mxCell>
        <mxCell id="-YPhlSswFtu4Mcz2xCKf-75" style="edgeStyle=orthogonalEdgeStyle;rounded=0;orthogonalLoop=1;jettySize=auto;html=1;strokeColor=#E07A5F;fontColor=#393C56;fillColor=#F2CC8F;" parent="1" source="-YPhlSswFtu4Mcz2xCKf-49" edge="1">
          <mxGeometry relative="1" as="geometry">
            <mxPoint x="955.3299999999995" y="-339.9999999999998" as="targetPoint" />
          </mxGeometry>
        </mxCell>
        <mxCell id="-YPhlSswFtu4Mcz2xCKf-80" style="edgeStyle=orthogonalEdgeStyle;rounded=0;orthogonalLoop=1;jettySize=auto;html=1;strokeColor=#E07A5F;fontColor=#393C56;fillColor=#F2CC8F;exitX=0;exitY=0.633;exitDx=0;exitDy=0;exitPerimeter=0;" parent="1" source="-YPhlSswFtu4Mcz2xCKf-49" target="-YPhlSswFtu4Mcz2xCKf-79" edge="1">
          <mxGeometry relative="1" as="geometry" />
        </mxCell>
        <mxCell id="-YPhlSswFtu4Mcz2xCKf-94" style="edgeStyle=orthogonalEdgeStyle;rounded=0;orthogonalLoop=1;jettySize=auto;html=1;entryX=0;entryY=0.5;entryDx=0;entryDy=0;strokeColor=#E07A5F;fontColor=#393C56;fillColor=#F2CC8F;" parent="1" source="-YPhlSswFtu4Mcz2xCKf-49" target="-YPhlSswFtu4Mcz2xCKf-60" edge="1">
          <mxGeometry relative="1" as="geometry">
            <Array as="points">
              <mxPoint x="955" y="220" />
            </Array>
          </mxGeometry>
        </mxCell>
        <mxCell id="-YPhlSswFtu4Mcz2xCKf-49" value="" style="points=[];aspect=fixed;html=1;align=center;shadow=0;dashed=0;fillColor=#FF6A00;strokeColor=none;shape=mxgraph.alibaba_cloud.spark_data_insights;fontColor=#393C56;" parent="1" vertex="1">
          <mxGeometry x="900" y="-46" width="110.66" height="120" as="geometry" />
        </mxCell>
        <mxCell id="-YPhlSswFtu4Mcz2xCKf-50" value="Big data processor&lt;div&gt;Spark or RedShift&lt;/div&gt;&lt;div&gt;Analyse location data removes duplicates, validates schema&lt;/div&gt;" style="whiteSpace=wrap;html=1;labelBackgroundColor=none;fillColor=#F2CC8F;strokeColor=#E07A5F;fontColor=#393C56;sketch=1;curveFitting=1;jiggle=2;" parent="1" vertex="1">
          <mxGeometry x="790.33" y="-120" width="120" height="110" as="geometry" />
        </mxCell>
        <mxCell id="-YPhlSswFtu4Mcz2xCKf-64" style="edgeStyle=orthogonalEdgeStyle;rounded=0;orthogonalLoop=1;jettySize=auto;html=1;strokeColor=#E07A5F;fontColor=#393C56;fillColor=#F2CC8F;" parent="1" source="-YPhlSswFtu4Mcz2xCKf-51" edge="1">
          <mxGeometry relative="1" as="geometry">
            <mxPoint x="530" y="496" as="targetPoint" />
          </mxGeometry>
        </mxCell>
        <mxCell id="-YPhlSswFtu4Mcz2xCKf-82" style="edgeStyle=orthogonalEdgeStyle;rounded=0;orthogonalLoop=1;jettySize=auto;html=1;strokeColor=#E07A5F;fontColor=#393C56;fillColor=#F2CC8F;" parent="1" edge="1">
          <mxGeometry relative="1" as="geometry">
            <mxPoint x="740" y="260" as="targetPoint" />
            <mxPoint x="910" y="470" as="sourcePoint" />
          </mxGeometry>
        </mxCell>
        <mxCell id="-YPhlSswFtu4Mcz2xCKf-83" style="edgeStyle=orthogonalEdgeStyle;rounded=0;orthogonalLoop=1;jettySize=auto;html=1;exitX=0.75;exitY=0;exitDx=0;exitDy=0;entryX=0.75;entryY=1;entryDx=0;entryDy=0;strokeColor=#E07A5F;fontColor=#393C56;fillColor=#F2CC8F;" parent="1" source="-YPhlSswFtu4Mcz2xCKf-51" target="-YPhlSswFtu4Mcz2xCKf-70" edge="1">
          <mxGeometry relative="1" as="geometry">
            <Array as="points">
              <mxPoint x="1020" y="466" />
              <mxPoint x="1020" y="110" />
              <mxPoint x="1290" y="110" />
            </Array>
          </mxGeometry>
        </mxCell>
        <mxCell id="-YPhlSswFtu4Mcz2xCKf-51" value="Location service" style="whiteSpace=wrap;html=1;strokeColor=#E07A5F;fontColor=#393C56;fillColor=#F2CC8F;" parent="1" vertex="1">
          <mxGeometry x="910.33" y="466" width="120" height="60" as="geometry" />
        </mxCell>
        <mxCell id="-YPhlSswFtu4Mcz2xCKf-89" style="edgeStyle=orthogonalEdgeStyle;rounded=0;orthogonalLoop=1;jettySize=auto;html=1;exitX=0.5;exitY=1;exitDx=0;exitDy=0;exitPerimeter=0;strokeColor=#E07A5F;fontColor=#393C56;fillColor=#F2CC8F;" parent="1" source="-YPhlSswFtu4Mcz2xCKf-52" edge="1">
          <mxGeometry relative="1" as="geometry">
            <mxPoint x="113" y="640" as="targetPoint" />
          </mxGeometry>
        </mxCell>
        <mxCell id="-YPhlSswFtu4Mcz2xCKf-52" value="" style="outlineConnect=0;dashed=0;verticalLabelPosition=bottom;verticalAlign=top;align=center;html=1;shape=mxgraph.aws3.elastic_load_balancing;fillColor=#F58536;gradientColor=none;strokeColor=#E07A5F;fontColor=#393C56;" parent="1" vertex="1">
          <mxGeometry x="75" y="470" width="76.5" height="93" as="geometry" />
        </mxCell>
        <mxCell id="-YPhlSswFtu4Mcz2xCKf-54" value="" style="image;sketch=0;aspect=fixed;html=1;points=[];align=center;fontSize=12;image=img/lib/mscae/Cache_Redis_Product.svg;strokeColor=#E07A5F;fontColor=#393C56;fillColor=#F2CC8F;" parent="1" vertex="1">
          <mxGeometry x="450" y="670" width="83.33" height="70" as="geometry" />
        </mxCell>
        <mxCell id="-YPhlSswFtu4Mcz2xCKf-57" value="evalaute driver location, route taken and ETA" style="whiteSpace=wrap;html=1;strokeColor=#E07A5F;fontColor=#393C56;fillColor=#F2CC8F;sketch=1;curveFitting=1;jiggle=2;" parent="1" vertex="1">
          <mxGeometry x="790.33" y="525" width="120" height="60" as="geometry" />
        </mxCell>
        <mxCell id="-YPhlSswFtu4Mcz2xCKf-59" value="" style="image;aspect=fixed;html=1;points=[];align=center;fontSize=12;image=img/lib/azure2/other/Managed_Instance_Apache_Cassandra.svg;strokeColor=#E07A5F;fontColor=#393C56;fillColor=#F2CC8F;" parent="1" vertex="1">
          <mxGeometry x="1310" y="180" width="110" height="110" as="geometry" />
        </mxCell>
        <mxCell id="-YPhlSswFtu4Mcz2xCKf-95" style="edgeStyle=orthogonalEdgeStyle;rounded=0;orthogonalLoop=1;jettySize=auto;html=1;strokeColor=#E07A5F;fontColor=#393C56;fillColor=#F2CC8F;" parent="1" source="-YPhlSswFtu4Mcz2xCKf-60" edge="1">
          <mxGeometry relative="1" as="geometry">
            <mxPoint x="1300" y="220" as="targetPoint" />
          </mxGeometry>
        </mxCell>
        <mxCell id="-YPhlSswFtu4Mcz2xCKf-60" value="Trip service" style="whiteSpace=wrap;html=1;strokeColor=#E07A5F;fontColor=#393C56;fillColor=#F2CC8F;" parent="1" vertex="1">
          <mxGeometry x="1100" y="190" width="120" height="60" as="geometry" />
        </mxCell>
        <mxCell id="-YPhlSswFtu4Mcz2xCKf-63" style="edgeStyle=orthogonalEdgeStyle;rounded=0;orthogonalLoop=1;jettySize=auto;html=1;entryX=0.346;entryY=0.007;entryDx=0;entryDy=0;entryPerimeter=0;strokeColor=#E07A5F;fontColor=#393C56;fillColor=#F2CC8F;" parent="1" source="-YPhlSswFtu4Mcz2xCKf-25" target="-YPhlSswFtu4Mcz2xCKf-54" edge="1">
          <mxGeometry relative="1" as="geometry" />
        </mxCell>
        <mxCell id="-YPhlSswFtu4Mcz2xCKf-69" value="&lt;span style=&quot;color: rgb(0, 0, 0); text-wrap-mode: nowrap;&quot;&gt;Send notification if bus takes other route&amp;nbsp;&lt;/span&gt;&lt;div style=&quot;color: rgb(0, 0, 0); text-wrap-mode: nowrap;&quot;&gt;or Its ETA dealyes&lt;/div&gt;&lt;div style=&quot;color: rgb(0, 0, 0); text-wrap-mode: nowrap;&quot;&gt;bus reached to destination proximity&lt;/div&gt;" style="whiteSpace=wrap;html=1;strokeColor=#E07A5F;fontColor=#393C56;fillColor=#F2CC8F;sketch=1;curveFitting=1;jiggle=2;" parent="1" vertex="1">
          <mxGeometry x="1210" y="480" width="250" height="70" as="geometry" />
        </mxCell>
        <mxCell id="-YPhlSswFtu4Mcz2xCKf-70" value="Map service&lt;div&gt;Google location apis&lt;/div&gt;" style="whiteSpace=wrap;html=1;strokeColor=#E07A5F;fontColor=#393C56;fillColor=#F2CC8F;" parent="1" vertex="1">
          <mxGeometry x="1200" y="-22" width="120" height="60" as="geometry" />
        </mxCell>
        <mxCell id="-YPhlSswFtu4Mcz2xCKf-71" value="give ETA based on location,&lt;div&gt;give the location segment for given lat, long&lt;br&gt;&lt;div&gt;&lt;br&gt;&lt;/div&gt;&lt;/div&gt;" style="whiteSpace=wrap;html=1;strokeColor=#E07A5F;fontColor=#393C56;fillColor=#F2CC8F;sketch=1;curveFitting=1;jiggle=2;" parent="1" vertex="1">
          <mxGeometry x="1190" y="-150" width="120" height="90" as="geometry" />
        </mxCell>
        <mxCell id="-YPhlSswFtu4Mcz2xCKf-78" style="edgeStyle=orthogonalEdgeStyle;rounded=0;orthogonalLoop=1;jettySize=auto;html=1;entryX=0;entryY=0.5;entryDx=0;entryDy=0;strokeColor=#E07A5F;fontColor=#393C56;fillColor=#F2CC8F;" parent="1" source="-YPhlSswFtu4Mcz2xCKf-73" target="-YPhlSswFtu4Mcz2xCKf-77" edge="1">
          <mxGeometry relative="1" as="geometry" />
        </mxCell>
        <mxCell id="-YPhlSswFtu4Mcz2xCKf-73" value="" style="outlineConnect=0;dashed=0;verticalLabelPosition=bottom;verticalAlign=top;align=center;html=1;shape=mxgraph.aws3.s3;fillColor=#E05243;gradientColor=none;strokeColor=#E07A5F;fontColor=#393C56;" parent="1" vertex="1">
          <mxGeometry x="923" y="-450" width="76.5" height="93" as="geometry" />
        </mxCell>
        <mxCell id="-YPhlSswFtu4Mcz2xCKf-74" value="stores processed location data" style="whiteSpace=wrap;html=1;strokeColor=#E07A5F;fontColor=#393C56;fillColor=#F2CC8F;sketch=1;curveFitting=1;jiggle=2;" parent="1" vertex="1">
          <mxGeometry x="900" y="-520" width="120" height="60" as="geometry" />
        </mxCell>
        <mxCell id="-YPhlSswFtu4Mcz2xCKf-77" value="Audit service" style="whiteSpace=wrap;html=1;strokeColor=#E07A5F;fontColor=#393C56;fillColor=#F2CC8F;" parent="1" vertex="1">
          <mxGeometry x="1200" y="-433.5" width="120" height="60" as="geometry" />
        </mxCell>
        <mxCell id="-YPhlSswFtu4Mcz2xCKf-79" value="" style="image;sketch=0;aspect=fixed;html=1;points=[];align=center;fontSize=12;image=img/lib/mscae/Cache_Redis_Product.svg;strokeColor=#E07A5F;fontColor=#393C56;fillColor=#F2CC8F;" parent="1" vertex="1">
          <mxGeometry x="700" y="180" width="83.33" height="70" as="geometry" />
        </mxCell>
        <mxCell id="-YPhlSswFtu4Mcz2xCKf-81" value="Stores ETA, last locations" style="whiteSpace=wrap;html=1;strokeColor=#E07A5F;fontColor=#393C56;fillColor=#F2CC8F;sketch=1;curveFitting=1;jiggle=2;" parent="1" vertex="1">
          <mxGeometry x="540" y="170" width="120" height="60" as="geometry" />
        </mxCell>
        <mxCell id="-YPhlSswFtu4Mcz2xCKf-86" value="analyse trip data&lt;div&gt;and historical trends&lt;/div&gt;" style="whiteSpace=wrap;html=1;strokeColor=#E07A5F;fontColor=#393C56;fillColor=#F2CC8F;sketch=1;curveFitting=1;jiggle=2;" parent="1" vertex="1">
          <mxGeometry x="1600" y="23" width="120" height="60" as="geometry" />
        </mxCell>
        <mxCell id="-YPhlSswFtu4Mcz2xCKf-87" value="" style="outlineConnect=0;dashed=0;verticalLabelPosition=bottom;verticalAlign=top;align=center;html=1;shape=mxgraph.aws3.redshift;fillColor=#2E73B8;gradientColor=none;strokeColor=#E07A5F;fontColor=#393C56;" parent="1" vertex="1">
          <mxGeometry x="1620" y="95" width="67.5" height="75" as="geometry" />
        </mxCell>
        <mxCell id="-YPhlSswFtu4Mcz2xCKf-91" style="edgeStyle=orthogonalEdgeStyle;rounded=0;orthogonalLoop=1;jettySize=auto;html=1;exitX=0.5;exitY=1;exitDx=0;exitDy=0;strokeColor=#E07A5F;fontColor=#393C56;fillColor=#F2CC8F;" parent="1" source="-YPhlSswFtu4Mcz2xCKf-88" edge="1">
          <mxGeometry relative="1" as="geometry">
            <mxPoint x="109.66666666666697" y="750" as="targetPoint" />
          </mxGeometry>
        </mxCell>
        <mxCell id="-YPhlSswFtu4Mcz2xCKf-88" value="Authentication&lt;div&gt;and IAM service&lt;/div&gt;" style="whiteSpace=wrap;html=1;strokeColor=#E07A5F;fontColor=#393C56;fillColor=#F2CC8F;" parent="1" vertex="1">
          <mxGeometry x="50" y="650" width="120" height="60" as="geometry" />
        </mxCell>
        <mxCell id="-YPhlSswFtu4Mcz2xCKf-90" value="" style="outlineConnect=0;dashed=0;verticalLabelPosition=bottom;verticalAlign=top;align=center;html=1;shape=mxgraph.aws3.mysql_db_instance;fillColor=#2E73B8;gradientColor=none;strokeColor=#E07A5F;fontColor=#393C56;" parent="1" vertex="1">
          <mxGeometry x="83" y="770" width="60" height="64.5" as="geometry" />
        </mxCell>
        <mxCell id="-YPhlSswFtu4Mcz2xCKf-92" value="user details&lt;div&gt;bus driver details&lt;/div&gt;&lt;div&gt;students details&lt;/div&gt;" style="whiteSpace=wrap;html=1;strokeColor=#E07A5F;fontColor=#393C56;fillColor=#F2CC8F;sketch=1;curveFitting=1;jiggle=2;" parent="1" vertex="1">
          <mxGeometry x="50" y="860" width="120" height="60" as="geometry" />
        </mxCell>
        <mxCell id="-YPhlSswFtu4Mcz2xCKf-93" style="edgeStyle=orthogonalEdgeStyle;rounded=0;orthogonalLoop=1;jettySize=auto;html=1;entryX=1;entryY=0.455;entryDx=0;entryDy=0;entryPerimeter=0;strokeColor=#E07A5F;fontColor=#393C56;fillColor=#F2CC8F;" parent="1" source="-YPhlSswFtu4Mcz2xCKf-87" target="-YPhlSswFtu4Mcz2xCKf-59" edge="1">
          <mxGeometry relative="1" as="geometry" />
        </mxCell>
      </root>
    </mxGraphModel>
  </diagram>
</mxfile>
